General

Complete name :The.Amazing.Spiderman.2012.TS.X246.450mb.only.{$harad}.mkv
Format : Matroska
Format version : Version 2
File size : 448 MiB
Duration : 2h 3mn
Overall bit rate : 508 Kbps
Encoded date : UTC 2012-07-18 15:00:12
Writing application : mkvmerge v5.6.0 ('Kenya Kane') built on May 27 2012 16:44:04
Writing library : libebml v1.2.3 + libmatroska v1.3.0

Video
ID : 1
Format : AVC
Format/Info : Advanced Video Codec
Format profile : High@L2.2
Format settings, CABAC : Yes
Format settings, ReFrames : 4 frames
Codec ID : V_MPEG4/ISO/AVC
Duration : 2h 3mn
Bit rate : 114 Kbps
Nominal bit rate : 122 Kbps
Width : 720 pixels
Height : 288 pixels
Display aspect ratio : 2.500
Frame rate : 25.000 fps
Color space : YUV
Chroma subsampling : 4:2:0
Bit depth : 8 bits
Scan type : Progressive
Bits/(Pixel*Frame) : 0.022
Stream size : 100 MiB (22%)
Writing library : x264 core 125 r2200 999b753
Encoding settings : cabac=1 / ref=3 / deblock=1:0:0 / analyse=0x3:0x113 / me=hex / subme=7 / psy=1 / psy_rd=1.00:0.00 / mixed_ref=1 / me_range=16 / chroma_me=1 / trellis=1 / 8x8dct=1 / cqm=0 / deadzone=21,11 / fast_pskip=1 / chroma_qp_offset=-2 / threads=3 / lookahead_threads=1 / sliced_threads=0 / nr=0 / decimate=1 / interlaced=0 / bluray_compat=0 / constrained_intra=0 / bframes=3 / b_pyramid=2 / b_adapt=1 / b_bias=0 / direct=1 / weightb=1 / open_gop=0 / weightp=2 / keyint=250 / keyint_min=25 / scenecut=40 / intra_refresh=0 / rc_lookahead=40 / rc=2pass / mbtree=1 / bitrate=122 / ratetol=1.0 / qcomp=0.60 / qpmin=0 / qpmax=69 / qpstep=4 / cplxblur=20.0 / qblur=0.5 / ip_ratio=1.40 / aq=1:1.00
Default : Yes
Forced : No

Audio
ID : 2
Format : AC-3
Format/Info : Audio Coding 3
Mode extension : CM (complete main)
Codec ID : A_AC3
Duration : 2h 3mn
Bit rate mode : Constant
Bit rate : 384 Kbps
Channel(s) : 2 channels
Channel positions : Front: L R
Sampling rate : 48.0 KHz
Bit depth : 16 bits
Compression mode : Lossy
Stream size : 339 MiB (76%)
Default : Yes
Forced : No

Screens
 
http://www.freeimagehosting.net/newuploads/yd4ce.jpg 
http://www.freeimagehosting.net/newuploads/fuqkm.jpg 
http://www.freeimagehosting.net/newuploads/v95hd.jpg